<svg width="56" height="72" viewBox="0 0 56 72" fill="none" xmlns="http://www.w3.org/2000/svg">
<path d="M49.3026 50.7237L49.3027 50.7238C53.0306 52.5768 55.35 56.3051 55.35 60.4498V64C55.35 65.5961 54.0775 66.8143 52.2531 67.7417C50.4074 68.6798 47.8698 69.3892 45.0671 69.9202C39.4553 70.9837 32.6816 71.35 28 71.35C23.3184 71.35 16.5447 70.9837 10.9329 69.9202C8.13024 69.3892 5.59257 68.6798 3.74693 67.7417C1.9225 66.8143 0.65 65.5961 0.65 64V60.2223C0.65 56.2385 2.83522 52.5811 6.35289 50.6735L6.35294 50.6735L16.8252 44.9966L49.3026 50.7237ZM49.3026 50.7237L38.0884 45.1518C38.0883 45.1518 38.0883 45.1517 38.0882 45.1517C37.1487 44.6843 36.5674 43.7482 36.5674 42.706V38.8862C36.8181 38.5765 37.079 38.2309 37.3466 37.855C38.7934 35.824 39.9575 33.5687 40.8114 31.14C42.512 30.3036 43.6109 28.593 43.6109 26.6667V22C43.6109 20.8331 43.1882 19.7045 42.437 18.8077V12.7496C42.5081 12.0301 42.7481 8.12374 39.8936 4.88796C37.3903 2.05007 33.361 0.65 28 0.65C22.639 0.65 18.6097 2.05006 16.1064 4.88675L16.1064 4.88679M49.3026 50.7237L16.1064 4.88679M16.1064 4.88679C13.252 8.12254 13.4919 12.03 13.563 12.7496M16.1064 4.88679L13.563 12.7496M7.80997 53.3387L7.80986 53.3388C5.27273 54.7129 3.69783 57.3519 3.69783 60.2223V64C3.69783 64.0411 3.73443 64.1735 3.98355 64.3918C4.2192 64.5984 4.59003 64.8326 5.10818 65.0816C6.14146 65.5781 7.70049 66.1049 9.77146 66.5861C13.9095 67.5476 20.0452 68.3167 28 68.3167C35.9548 68.3167 42.0905 67.5476 46.2285 66.5861C48.2995 66.1049 49.8585 65.5781 50.8918 65.0816C51.41 64.8326 51.7808 64.5984 52.0165 64.3918C52.2656 64.1735 52.3022 64.0411 52.3022 64V60.4498C52.3022 57.4604 50.6326 54.7743 47.9405 53.4366L36.7261 47.8646L36.726 47.8646C34.7495 46.8818 33.5196 44.9047 33.5196 42.706V37.8935V37.7612L33.6071 37.6619L33.8994 37.3306L33.8999 37.33C34.1838 37.0097 34.5151 36.5852 34.859 36.1007L34.8595 36.1001C36.2606 34.1355 37.3635 31.9257 38.1383 29.5304L38.1385 29.5299L38.3263 28.9524L38.3826 28.7791L38.5569 28.7259L39.1412 28.5475C39.1413 28.5475 39.1414 28.5475 39.1415 28.5474C39.1415 28.5474 39.1415 28.5474 39.1415 28.5474C39.9971 28.2852 40.563 27.5261 40.563 26.6667V22C40.563 21.4496 40.3295 20.9327 39.8928 20.5408L39.8928 20.5408L39.5054 20.1932L39.3889 20.0886L39.3891 19.9322L39.3997 12.5133L39.3997 12.4989L39.4009 12.4846C39.4009 12.4842 39.4011 12.4833 39.4012 12.4817C39.4127 12.3701 39.731 9.27863 37.583 6.86537L37.5829 6.86526C35.7316 4.78361 32.5401 3.68333 28 3.68333C23.4436 3.68333 20.2458 4.79168 18.3969 6.88753C16.23 9.34397 16.5914 12.4173 16.5981 12.4742L16.5981 12.4749L16.599 12.4823L16.5995 12.4897L16.61 12.6425L16.6109 12.6546V12.6667V19.9327V20.0892L16.4942 20.1935L16.1075 20.5394C15.6705 20.9325 15.437 21.4497 15.437 22V26.6667C15.437 27.3326 15.7794 27.9546 16.3617 28.3285L7.80997 53.3387ZM7.80997 53.3387L18.2825 47.6617L18.2826 47.6616C20.1473 46.65 21.3065 44.7088 21.3065 42.5975V37.9087V37.7808L21.2241 37.683L20.952 37.3604C20.9518 37.3602 20.9516 37.36 20.9513 37.3596C20.8997 37.2974 18.0932 33.9028 17.021 29.263L17.021 29.263L16.9141 28.801L16.882 28.6621L16.762 28.5852L16.3619 28.3286L7.80997 53.3387ZM13.563 12.7496V18.8077C12.8118 19.7045 12.3891 20.8331 12.3891 22V26.6667C12.3891 28.1549 13.0522 29.5446 14.1861 30.4923C15.2571 34.6107 17.409 37.7335 18.2587 38.8553V42.5975C18.2587 43.5974 17.7101 44.5158 16.8254 44.9965L13.563 12.7496Z" fill="white" stroke="white" stroke-width="0.7"/>
</svg>
