<svg xmlns="http://www.w3.org/2000/svg" viewBox="0 0 313.03 64.43"><defs><style>.cls-1{fill:#0082bd;}.cls-2{fill:#04a8e7;}.cls-3{fill:#005595;}.cls-4{fill:#1c1c1c;}</style></defs><g id="Warstwa_2" data-name="Warstwa 2"><g id="Warstwa_1-2" data-name="Warstwa 1"><path class="cls-1" d="M42,17.59c-4.81,8.93-18.5,27-22,30.5,8-2.5,29.53-23.17,33.5-30.5S49,4.59,42,17.59Z"/><path class="cls-2" d="M77.74,4.71c-5.85.44-10.6,2.82-12.65,4.72A16.65,16.65,0,0,1,76.64.09C81.41-.76,81.56,4.43,77.74,4.71Z"/><path class="cls-3" d="M101.5,63.88H0c40.5-16.5,56-52,77-56,22.5-4,26.5,10,23,17-1.83,3.34-8.63,8-15.5,4-6-3.49-4-10.7-.5-13.2,0,0-3,0-4,.21h0c-1.07.19-6,1.06-10,8C60.4,39.49,77,62.18,101.5,63.88Z"/><path class="cls-1" d="M82.33,40.62C85.39,55.19,95.68,58.36,100,58.05c-12.52,1.37-25.28-8.32-28.41-19.71-2.5-9.1,3.58-10.47,6.26-8.19C79.16,31.26,81.25,35.52,82.33,40.62Z"/><path class="cls-4" d="M132.92,36.86v27.3h-4.17l-15-18.49V64.16h-5V36.86h4.17l15,18.49V36.86Z"/><path class="cls-4" d="M147.73,43.1q4.59,0,7,2.22T157.2,52V64.16h-4.6V61.63a5.73,5.73,0,0,1-2.57,2.1,10.05,10.05,0,0,1-4,.7,10,10,0,0,1-4.09-.78,6.58,6.58,0,0,1-2.73-2.22,5.77,5.77,0,0,1-.94-3.24,5.47,5.47,0,0,1,2.07-4.48Q142.46,52,147,52h5.38v-.31A4.2,4.2,0,0,0,151,48.33a5.55,5.55,0,0,0-3.86-1.17,11.52,11.52,0,0,0-3.47.54,8.61,8.61,0,0,0-2.85,1.52l-1.91-3.55a12.15,12.15,0,0,1,3.94-1.91A17.65,17.65,0,0,1,147.73,43.1Zm-.67,17.78a6.34,6.34,0,0,0,3.24-.81,4.68,4.68,0,0,0,2-2.42V55.23h-5q-4.22,0-4.21,2.77a2.48,2.48,0,0,0,1,2.1A4.82,4.82,0,0,0,147.06,60.88Z"/><path class="cls-4" d="M206.73,43.33,199,64.16h-4.68L189,49.81l-5.46,14.35h-4.68L171.2,43.33h4.6l5.5,15.37L187,43.33h4.1l5.61,15.45,5.66-15.45Z"/><path class="cls-4" d="M218.87,64.43a11.83,11.83,0,0,1-5.7-1.36,10.1,10.1,0,0,1-4-3.78,11,11,0,0,1-1.41-5.54,10.7,10.7,0,0,1,1.41-5.5,10.1,10.1,0,0,1,4-3.78,12.61,12.61,0,0,1,11.43,0,9.89,9.89,0,0,1,3.94,3.78,10.52,10.52,0,0,1,1.44,5.5,10.77,10.77,0,0,1-1.44,5.54,9.89,9.89,0,0,1-3.94,3.78A11.89,11.89,0,0,1,218.87,64.43Zm0-4.17a6,6,0,0,0,4.44-1.79,6.47,6.47,0,0,0,1.76-4.72A6.46,6.46,0,0,0,223.31,49a6.39,6.39,0,0,0-8.89,0,6.55,6.55,0,0,0-1.72,4.72,6.57,6.57,0,0,0,1.72,4.72A6,6,0,0,0,218.87,60.26Z"/><path class="cls-4" d="M255,35.22V64.16h-4.68V61.47a7.51,7.51,0,0,1-3,2.22,9.82,9.82,0,0,1-3.9.74A11.09,11.09,0,0,1,238,63.11a9.59,9.59,0,0,1-3.75-3.75,11.34,11.34,0,0,1-1.36-5.61,11.14,11.14,0,0,1,1.36-5.58A9.56,9.56,0,0,1,238,44.43a11,11,0,0,1,5.42-1.33,9.86,9.86,0,0,1,3.78.7,7.68,7.68,0,0,1,2.93,2.11V35.22Zm-11,25a6.38,6.38,0,0,0,3.16-.78,5.85,5.85,0,0,0,2.22-2.3,7.58,7.58,0,0,0,0-6.86,5.58,5.58,0,0,0-2.22-2.27,6.5,6.5,0,0,0-6.32,0,5.71,5.71,0,0,0-2.22,2.27,7.58,7.58,0,0,0,0,6.86,6,6,0,0,0,2.22,2.3A6.41,6.41,0,0,0,244,60.26Z"/><path class="cls-4" d="M277.68,60.26v3.9h-18V61.08l11.43-13.85H259.94v-3.9h17.43v3.09L265.9,60.26Z"/><path class="cls-4" d="M282.17,43.33h4.88V64.16h-4.88Zm2.46-3.43a3.16,3.16,0,0,1-2.22-.82,2.78,2.78,0,0,1-.9-2.1,2.69,2.69,0,0,1,.9-2.07,3.1,3.1,0,0,1,2.22-.86,3.21,3.21,0,0,1,2.23.82,2.53,2.53,0,0,1,.89,2,3,3,0,0,1-.89,2.18A3,3,0,0,1,284.63,39.9Z"/><path class="cls-4" d="M313,53.86c0,.34,0,.82-.08,1.45H296.61A5.72,5.72,0,0,0,298.83,59a7.47,7.47,0,0,0,4.52,1.33A7.59,7.59,0,0,0,309,58l2.61,3a8.83,8.83,0,0,1-3.55,2.54,14.14,14.14,0,0,1-10.88-.51,10,10,0,0,1-4.05-3.78,11.58,11.58,0,0,1,0-11A9.84,9.84,0,0,1,297,44.47a11.21,11.21,0,0,1,5.54-1.37,10.73,10.73,0,0,1,5.42,1.37,9.14,9.14,0,0,1,3.74,3.78A11.21,11.21,0,0,1,313,53.86ZM302.5,47a5.93,5.93,0,0,0-4,1.4,5.76,5.76,0,0,0-1.95,3.67h11.82A5.7,5.7,0,0,0,302.5,47Z"/></g></g></svg>